<svg xmlns="http://www.w3.org/2000/svg" aria-hidden="true" focusable="false" data-prefix="fas" data-icon="times" role="img" width="352" height="512"><rect id="backgroundrect" width="100%" height="100%" x="0" y="0" fill="none" stroke="none"/><g class="currentLayer" style=""><title>Layer 1</title><path fill="#b6b6b6" d="M241.96812030792236,256.75187969207764 l100.07,-100.07 c12.28,-12.28 12.28,-32.19 0,-44.48 l-22.24,-22.24 c-12.28,-12.28 -32.19,-12.28 -44.48,0 L175.24812030792236,190.03187969207764 L75.17812030792237,89.96187969207763 c-12.28,-12.28 -32.19,-12.28 -44.48,0 L8.458120307922364,112.20187969207764 c-12.28,12.28 -12.28,32.19 0,44.48 L108.52812030792236,256.75187969207764 L8.458120307922364,356.82187969207763 c-12.28,12.28 -12.28,32.19 0,44.48 l22.24,22.24 c12.28,12.28 32.2,12.28 44.48,0 L175.24812030792236,323.47187969207766 l100.07,100.07 c12.28,12.28 32.2,12.28 44.48,0 l22.24,-22.24 c12.28,-12.28 12.28,-32.19 0,-44.48 L241.96812030792236,256.75187969207764 z" id="svg_1" class="selected" fill-opacity="1"/></g></svg>